# xmcd CD database file
#
# Track frame offsets:
#	150
#	20225
#	41558
#	59317
#	78977
#	93138
#	121505
#	140635
#	160594
#	180002
#	209566
#	228336
#
# Disc length: 3295 seconds
#
# Revision: 0
# Processed by: cddbd v1.5.1PL0 Copyright (c) Steve Scherf et al.
# Submitted via: cdripper 1.0.10
#
DISCID=8f0cdd0c
DTITLE=The John Haysom Trio - The Many Horns of John Haysom
DYEAR=2004
DGENRE=Jazz
TTITLE0=Autumn Leaves
TTITLE1=Girl from Ipanema
TTITLE2=Alone Together
TTITLE3=Serenade to a Cuckoo
TTITLE4=Look for the Silver Lining
TTITLE5=Morning of Carnival
TTITLE6=Beautiful Love
TTITLE7=Have You Met Miss Jones?
TTITLE8=I Remember You
TTITLE9=Body and Soul
TTITLE10=Tangerine
TTITLE11=Soujourn at Sacha's
EXTD=YEAR: 2004
EXTT0=
EXTT1=
EXTT2=
EXTT3=
EXTT4=
EXTT5=
EXTT6=
EXTT7=
EXTT8=
EXTT9=
EXTT10=
EXTT11=
PLAYORDER=
